<?xml version="1.0" standalone="no"?><!-- Generator: Adobe Fireworks CS5, Export SVG Extension by Aaron Beall (http://fireworks.abeall.com) . Version: 0.6.1  --><!DOCTYPE svg PUBLIC "-//W3C//DTD SVG 1.1//EN" "http://www.w3.org/Graphics/SVG/1.1/DTD/svg11.dtd"><svg id="Untitled-Seite%201" viewBox="0 0 32 32" style="background-color:#ffffff00" version="1.1"	xmlns="http://www.w3.org/2000/svg" xmlns:xlink="http://www.w3.org/1999/xlink" xml:space="preserve"	x="0px" y="0px" width="32px" height="32px">	<g id="Ebene%201">		<path id="Ellipse" d="M 4.2319 4.9596 C 4.2319 3.52 5.4922 2.3529 7.0468 2.3529 C 8.6015 2.3529 9.8617 3.52 9.8617 4.9596 C 9.8617 6.3992 8.6015 7.5663 7.0468 7.5663 C 5.4922 7.5663 4.2319 6.3992 4.2319 4.9596 Z" fill="#6c8e7c"/>		<path d="M 1.2005 14.7526 C 1.2005 14.7526 1.1464 10.2453 1.2005 8.8876 C 1.5795 7.53 4.665 6.9327 5.9642 8.6704 C 6.722 8.7247 7.534 8.6704 7.9671 8.6704 C 8.5084 7.7472 11.1609 6.8784 12.5142 8.779 C 12.4601 10.0281 12.5142 13.395 12.5142 14.6983 C 12.5142 14.6983 11.0526 14.7526 10.3489 14.6983 C 10.3489 14.2639 10.2948 12.5804 10.2948 11.2771 C 9.8617 10.6254 9.5887 11.2828 9.4706 11.4706 C 9.4543 12.5254 9.4706 14.0958 9.4706 14.7647 L 4.2941 14.7647 C 4.2941 14.1251 4.2941 12.2761 4.2941 11.3529 C 3.8611 10.7556 3.5282 10.9512 3.3117 11.3857 L 3.3117 14.7526 L 1.2005 14.7526 Z" fill="#6c8e7c"/>		<path id="Ellipse2" d="M 13.4084 20.2537 C 13.4084 18.8141 14.6687 17.6471 16.2233 17.6471 C 17.778 17.6471 19.0382 18.8141 19.0382 20.2537 C 19.0382 21.6933 17.778 22.8604 16.2233 22.8604 C 14.6687 22.8604 13.4084 21.6933 13.4084 20.2537 Z" fill="#6c8e7c"/>		<path d="M 10.377 30.0467 C 10.377 30.0467 10.3229 25.5394 10.377 24.1818 C 10.7559 22.8241 13.8415 22.2268 15.1407 23.9645 C 15.8985 24.0188 16.7105 23.9645 17.1436 23.9645 C 17.6849 23.0414 20.3374 22.1725 21.6907 24.0732 C 21.6366 25.3222 21.6907 28.6891 21.6907 29.9924 C 21.6907 29.9924 20.2291 30.0467 19.5254 29.9924 C 19.5254 29.558 19.4713 27.8745 19.4713 26.5712 C 19.0382 25.9195 18.7652 26.5769 18.6471 26.7647 C 18.6308 27.8195 18.6471 29.3899 18.6471 30.0588 L 13.4706 30.0588 C 13.4706 29.4192 13.4706 27.5703 13.4706 26.6471 C 13.0375 26.0497 12.7047 26.2454 12.4882 26.6798 L 12.4882 30.0467 L 10.377 30.0467 Z" fill="#6c8e7c"/>		<path id="Ellipse3" d="M 22.5849 4.9596 C 22.5849 3.52 23.8452 2.3529 25.3998 2.3529 C 26.9544 2.3529 28.2147 3.52 28.2147 4.9596 C 28.2147 6.3992 26.9544 7.5663 25.3998 7.5663 C 23.8452 7.5663 22.5849 6.3992 22.5849 4.9596 Z" fill="#6c8e7c"/>		<path d="M 19.5535 14.7526 C 19.5535 14.7526 19.4993 10.2453 19.5535 8.8876 C 19.9324 7.53 23.0179 6.9327 24.3171 8.6704 C 25.075 8.7247 25.887 8.6704 26.32 8.6704 C 26.8614 7.7472 29.5139 6.8784 30.8672 8.779 C 30.813 10.0281 30.8672 13.395 30.8672 14.6983 C 30.8672 14.6983 29.4056 14.7526 28.7018 14.6983 C 28.7018 14.2639 28.6477 12.5804 28.6477 11.2771 C 28.2147 10.6254 27.9417 11.2828 27.8235 11.4706 C 27.8073 12.5254 27.8235 14.0958 27.8235 14.7647 L 22.6471 14.7647 C 22.6471 14.1251 22.6471 12.2761 22.6471 11.3529 C 22.214 10.7556 21.8812 10.9512 21.6646 11.3857 L 21.6646 14.7526 L 19.5535 14.7526 Z" fill="#6c8e7c"/>	</g></svg>